<svg xmlns="http://www.w3.org/2000/svg" width="99.84" height="101.873" viewBox="0 0 99.84 101.873">
  <g id="Group_714" data-name="Group 714" transform="translate(-509.954 -452.22)">
    <ellipse id="Ellipse_56" data-name="Ellipse 56" cx="45.932" cy="46.59" rx="45.932" ry="46.59" transform="translate(517.931 460.914)" fill="#ffcca6"/>
    <path id="Path_747" data-name="Path 747" d="M49.555,87.22q-14.685,0-25.7-6.177A42.213,42.213,0,0,1,6.9,63.677Q.954,52.488.954,37.686q0-14.918,6.352-26.4A45.114,45.114,0,0,1,24.73-6.486,49.113,49.113,0,0,1,49.439-12.78q14.8,0,25.233,6.294A41.725,41.725,0,0,1,90.348,9.6a41.981,41.981,0,0,1,5.245,20.047q0,12.121-3.555,19.464t-8.8,10.373a21.193,21.193,0,0,1-10.723,3.03q-6.294,0-9.615-2.739t-3.438-7.984h-.233A21.633,21.633,0,0,1,51.712,59.6,19.47,19.47,0,0,1,41.28,62.511a15.325,15.325,0,0,1-11.83-5.186q-4.72-5.186-4.72-14.86a36.829,36.829,0,0,1,3.03-14.8A28.272,28.272,0,0,1,36.444,16.3a20.662,20.662,0,0,1,13-4.371,17.649,17.649,0,0,1,10.315,3.03,12.021,12.021,0,0,1,5.3,7.459h.117l1.282-7.11a2.266,2.266,0,0,1,.816-1.515,2.472,2.472,0,0,1,1.632-.583,2.146,2.146,0,0,1,1.748.7,2.623,2.623,0,0,1,.466,1.981L65.639,47.36a22.971,22.971,0,0,0-.35,3.73q0,4.079,2.04,5.594T73.448,58.2a13.426,13.426,0,0,0,7.867-2.8q3.9-2.8,6.643-9.207T90.7,29.644a37.133,37.133,0,0,0-4.545-17.483A36.685,36.685,0,0,0,72.283-2.116Q62.959-7.768,49.439-7.768A44.475,44.475,0,0,0,27.178-2.174,40.224,40.224,0,0,0,11.56,13.735Q5.849,24.05,5.849,37.686q0,13.52,5.245,23.543a36.986,36.986,0,0,0,15.093,15.5q9.848,5.478,23.368,5.478A46.714,46.714,0,0,0,67.1,79.178,30.9,30.9,0,0,0,79.159,70.9a4.18,4.18,0,0,1,3.147-1.865,2.045,2.045,0,0,1,1.69.816,2.936,2.936,0,0,1,.641,1.865,3.252,3.252,0,0,1-.816,2.214,37.17,37.17,0,0,1-14.51,9.848A53.9,53.9,0,0,1,49.555,87.22ZM42.213,58.2A17.312,17.312,0,0,0,53.4,54.353a24.254,24.254,0,0,0,7.284-10.082,34.533,34.533,0,0,0,2.506-13q0-7.226-3.671-11.072a12.976,12.976,0,0,0-9.848-3.846,16.779,16.779,0,0,0-10.781,3.671,23.973,23.973,0,0,0-7.11,9.557,31.075,31.075,0,0,0-2.506,12.3q0,8.042,3.73,12.179A11.907,11.907,0,0,0,42.213,58.2Z" transform="translate(509 465)" fill="#2329d6"/>
  </g>
</svg>
