<svg xmlns="http://www.w3.org/2000/svg" width="34.75" height="26.75" viewBox="0 0 34.75 26.75">
  <g id="withdraw" transform="translate(0.75 0.75)">
    <g id="Group_869" data-name="Group 869" transform="translate(2.167 2.167)">
      <path id="Path_4398" data-name="Path 4398" d="M6597,195h31.833v7.944H6597Z" transform="translate(-6597 -195)" fill="#9c9da8"/>
      <path id="Path_4397" data-name="Path 4397" d="M6603,193v19.861h15.916V193Z" transform="translate(-6595.042 -189.028)" fill="#9c9da8"/>
    </g>
    <path id="Path_698" data-name="Path 698" d="M6597,195h32v8h-32Z" transform="translate(-6597 -195)" fill="none" stroke="#6f7089" stroke-linecap="round" stroke-linejoin="round" stroke-width="1.5"/>
    <path id="Path_699" data-name="Path 699" d="M6600,193h24" transform="translate(-6596 -189)" fill="none" stroke="#6f7089" stroke-linecap="round" stroke-width="1.5"/>
    <path id="Path_700" data-name="Path 700" d="M6603,193v20h16V193Z" transform="translate(-6595 -189)" fill="none" stroke="#6f7089" stroke-linecap="round" stroke-linejoin="round" stroke-width="1.5"/>
    <g id="Path_4385" data-name="Path 4385" transform="translate(12 12)" fill="none" stroke-linecap="round">
      <path d="M4,0A4,4,0,1,1,0,4,4,4,0,0,1,4,0Z" stroke="none"/>
      <path d="M 3.999978542327881 1.499998569488525 C 2.621488571166992 1.499998569488525 1.499998569488525 2.621488571166992 1.499998569488525 3.999978542327881 C 1.499998569488525 5.37846851348877 2.621488571166992 6.499958515167236 3.999978542327881 6.499958515167236 C 5.37846851348877 6.499958515167236 6.499958515167236 5.37846851348877 6.499958515167236 3.999978542327881 C 6.499958515167236 2.621488571166992 5.37846851348877 1.499998569488525 3.999978542327881 1.499998569488525 M 3.999978542327881 -1.430511474609375e-06 C 6.209108352661133 -1.430511474609375e-06 7.999958515167236 1.790848731994629 7.999958515167236 3.999978542327881 C 7.999958515167236 6.209108352661133 6.209108352661133 7.999958515167236 3.999978542327881 7.999958515167236 C 1.790848731994629 7.999958515167236 -1.430511474609375e-06 6.209108352661133 -1.430511474609375e-06 3.999978542327881 C -1.430511474609375e-06 1.790848731994629 1.790848731994629 -1.430511474609375e-06 3.999978542327881 -1.430511474609375e-06 Z" stroke="none" fill="#6f7089"/>
    </g>
  </g>
</svg>
