<?xml version="1.0" encoding="utf-8"?>
<!-- Generator: Adobe Illustrator 23.0.1, SVG Export Plug-In . SVG Version: 6.00 Build 0)  -->
<svg version="1.1" id="Layer_1" xmlns="http://www.w3.org/2000/svg" xmlns:xlink="http://www.w3.org/1999/xlink" x="0px" y="0px"
	 viewBox="0 0 19.1 24.9" style="enable-background:new 0 0 19.1 24.9;" xml:space="preserve">
<style type="text/css">
	.iufib{fill:#FFCCA6;}
	.insdjjas{fill:#2329D6;}
</style>
<g id="contract" transform="translate(0.75 0.75)">
	<g id="Path_4347">
		<g>
			<path class="iufib" d="M7.8,24h-3c-1.5,0-2.6-1.3-2.6-2.7V4.9c0-1.5,1.1-2.7,2.6-2.7h10.4c1.5,0,2.6,1.3,2.6,2.7v7.8"/>
		</g>
	</g>
	<g id="Path_727">
		<g>
			<path class="insdjjas" d="M5.6,22.6h-3c-1.9,0-3.4-1.6-3.4-3.5V2.7c0-1.9,1.5-3.4,3.3-3.5H13c1.9,0,3.4,1.6,3.4,3.5v7.8
				c0,0.4-0.3,0.8-0.8,0.8s-0.8-0.3-0.8-0.8V2.7c0-1.1-0.8-2-1.9-2H2.6c-1,0-1.9,0.9-1.9,2v16.4c0,1.1,0.8,2,1.9,2h3
				c0.4,0,0.8,0.3,0.8,0.8S6,22.6,5.6,22.6z"/>
		</g>
	</g>
	<g id="Path_728">
		<g>
			<path class="insdjjas" d="M9,22.7c-0.2,0-0.4-0.1-0.5-0.2c-0.2-0.2-0.3-0.4-0.2-0.7l0.6-3.2c0-0.1,0.1-0.3,0.2-0.4l5.2-5.4
				c0.1-0.1,0.3-0.2,0.5-0.2c0.2,0,0.4,0.1,0.5,0.2l2.4,2.5c0.3,0.3,0.3,0.7,0,1l-5.2,5.4c-0.1,0.1-0.2,0.2-0.4,0.2l-3,0.6
				C9.1,22.7,9,22.7,9,22.7z M10.3,19.1L10,21l1.7-0.4l4.5-4.7l-1.4-1.4L10.3,19.1z"/>
		</g>
	</g>
	<g id="Path_729">
		<g>
			<path class="insdjjas" d="M12,6.2H3.5c-0.4,0-0.8-0.3-0.8-0.8s0.3-0.8,0.8-0.8H12c0.4,0,0.8,0.3,0.8,0.8S12.4,6.2,12,6.2z"/>
		</g>
	</g>
	<g id="Path_730">
		<g>
			<path class="insdjjas" d="M12,9.8H3.5c-0.4,0-0.8-0.3-0.8-0.8s0.3-0.8,0.8-0.8H12c0.4,0,0.8,0.3,0.8,0.8S12.4,9.8,12,9.8z"/>
		</g>
	</g>
	<g id="Path_731">
		<g>
			<path class="insdjjas" d="M10.3,13.5H3.5c-0.4,0-0.8-0.3-0.8-0.8S3.1,12,3.5,12h6.8c0.4,0,0.8,0.3,0.8,0.8S10.7,13.5,10.3,13.5z"/>
		</g>
	</g>
</g>
</svg>
