<?xml version="1.0" encoding="utf-8"?>
<!-- Generator: Adobe Illustrator 23.0.1, SVG Export Plug-In . SVG Version: 6.00 Build 0)  -->
<svg version="1.1" id="Layer_1" xmlns="http://www.w3.org/2000/svg" xmlns:xlink="http://www.w3.org/1999/xlink" x="0px" y="0px"
	 viewBox="0 0 29.5 25.5" style="enable-background:new 0 0 29.5 25.5;" xml:space="preserve">
<style type="text/css">
	.iisdnsll{fill:#6F7089;}
</style>
<g id="controls" transform="translate(0.75 0.75)">
	<g id="controls-2">
		<path class="iisdnsll" d="M24,24.8c-0.4,0-0.8-0.3-0.8-0.8V12.8H20c-0.4,0-0.8-0.3-0.8-0.8s0.3-0.8,0.8-0.8h3.3V0
			c0-0.4,0.3-0.8,0.8-0.8s0.8,0.3,0.8,0.8v11.3H28c0.4,0,0.8,0.3,0.8,0.8s-0.3,0.8-0.8,0.8h-3.3V24C24.8,24.4,24.4,24.8,24,24.8z
			 M14,24.8c-0.4,0-0.8-0.3-0.8-0.8v-3.3H10c-0.4,0-0.8-0.3-0.8-0.8s0.3-0.8,0.8-0.8h3.3V0c0-0.4,0.3-0.8,0.8-0.8s0.8,0.3,0.8,0.8
			v19.3H18c0.4,0,0.8,0.3,0.8,0.8s-0.3,0.8-0.8,0.8h-3.3V24C14.8,24.4,14.4,24.8,14,24.8z M4,24.8c-0.4,0-0.8-0.3-0.8-0.8V4.8H0
			c-0.4,0-0.8-0.3-0.8-0.8S-0.4,3.3,0,3.3h3.3V0c0-0.4,0.3-0.8,0.8-0.8S4.8-0.4,4.8,0v3.3H8c0.4,0,0.8,0.3,0.8,0.8S8.4,4.8,8,4.8
			H4.8V24C4.8,24.4,4.4,24.8,4,24.8z"/>
	</g>
</g>
</svg>
