<?xml version="1.0" encoding="utf-8"?>
<!-- Generator: Adobe Illustrator 23.0.1, SVG Export Plug-In . SVG Version: 6.00 Build 0)  -->
<svg version="1.1" id="Layer_1" xmlns="http://www.w3.org/2000/svg" xmlns:xlink="http://www.w3.org/1999/xlink" x="0px" y="0px"
	 viewBox="0 0 35.5 24.8" style="enable-background:new 0 0 35.5 24.8;" xml:space="preserve">
<style type="text/css">
	.iosnndyys{fill:#9C9DA8;}
	.oolljjiuyhn{fill:#6F7089;}
</style>
<g id="credit-card" transform="translate(0.75 0.75)">
	<g id="Path_4396">
		<path class="iosnndyys" d="M2.8,2.7h32V24h-32V2.7z"/>
	</g>
	<g id="Line_16">
		<path class="oolljjiuyhn" d="M33.2,7.4H0c-0.4,0-0.8-0.3-0.8-0.8S-0.4,5.9,0,5.9h33.2c0.4,0,0.8,0.3,0.8,0.8S33.6,7.4,33.2,7.4z"/>
	</g>
	<g id="Path_4384">
		<path class="oolljjiuyhn" d="M33.2,22.1H0c-0.4,0-0.8-0.3-0.8-0.8V0c0-0.4,0.3-0.8,0.8-0.8h33.2C33.6-0.7,34-0.4,34,0v21.3
			C34,21.7,33.6,22.1,33.2,22.1z M0.8,20.6h31.7V0.8H0.8V20.6z"/>
	</g>
</g>
</svg>
