<svg width="1082" height="687" viewBox="0 0 1082 687" fill="none" xmlns="http://www.w3.org/2000/svg">
<rect width="1082" height="687" fill="#F6F6FA"/>
<mask id="mask0" mask-type="alpha" maskUnits="userSpaceOnUse" x="0" y="0" width="1082" height="687">
<rect width="1082" height="687" fill="#2429D6"/>
</mask>
<g mask="url(#mask0)">
<path d="M272.5 706.5C88 657.694 -83 344 -83 344L-4.5 932H1076L1342.5 344C1342.5 344 1009.39 394.141 946 429.5C799 511.5 730.073 593.5 658.5 658.5C547.913 758.931 382 735.466 272.5 706.5Z" fill="#F1ECEC"/>
<path d="M979.998 25.2891C1137.77 52.5141 1284 227.5 1284 227.5L1364 -137.5L0 -172L-128 293.5C-128 293.5 349.857 199.53 404.062 179.806C529.768 134.065 588.71 88.3231 649.915 52.0646C744.482 -3.95804 886.361 9.1312 979.998 25.2891Z" fill="#F1ECEC"/>
</g>
</svg>
