<svg width="1082" height="687" viewBox="0 0 1082 687" fill="none" xmlns="http://www.w3.org/2000/svg">
<rect width="1082" height="687" fill="#03CD78"/>
<mask id="mask0" mask-type="alpha" maskUnits="userSpaceOnUse" x="0" y="0" width="1082" height="687">
<rect width="1082" height="687" fill="#277353"/>
</mask>
<g mask="url(#mask0)">
<path d="M224.5 706.5C40 657.694 -131 344 -131 344L-52.5 932H1028L1294.5 344C1294.5 344 961.388 394.141 898 429.5C751 511.5 682.073 593.5 610.5 658.5C499.913 758.931 334 735.466 224.5 706.5Z" fill="#14DC87"/>
<path d="M987.921 -24.2338C1182.06 16.1887 1362 276 1362 276L1279.4 -211H142.428L-138 276C-138 276 212.522 234.472 279.222 205.186C433.905 137.271 506.434 69.3563 581.747 15.5213C698.114 -67.6587 872.698 -48.2244 987.921 -24.2338Z" fill="#14DC87"/>
</g>
</svg>
