<?xml version="1.0" encoding="utf-8"?>
<!-- Generator: Adobe Illustrator 23.0.1, SVG Export Plug-In . SVG Version: 6.00 Build 0)  -->
<svg version="1.1" id="Layer_1" xmlns="http://www.w3.org/2000/svg" xmlns:xlink="http://www.w3.org/1999/xlink" x="0px" y="0px"
	 viewBox="0 0 28.3 24.8" style="enable-background:new 0 0 28.3 24.8;" xml:space="preserve">
<style type="text/css">
	.st0{fill:#FFCCA6;}
	.st1{fill:#2329D6;}
</style>
<g id="history" transform="translate(1.061 0.75)">
	<g id="Path_4395">
		<path class="st0" d="M16.3,24c6.1,0,11-4.9,11-11s-4.9-11-11-11c-5.4,0-10,4-10.8,9.3c-0.1,0.3-0.1,2.1-0.1,2.7"/>
	</g>
	<g id="Path_736">
		<path class="st1" d="M14.3,22.7c-0.4,0-0.8-0.3-0.8-0.8s0.3-0.8,0.8-0.8c5.6,0,10.2-4.6,10.2-10.2c0-5.6-4.6-10.2-10.2-10.2
			c0,0,0,0,0,0c-5.1,0-9.3,3.7-10.1,8.7c0,0.3-0.1,1.9-0.1,2.6c0,0.4-0.3,0.8-0.8,0.8s-0.8-0.3-0.8-0.8c0-0.6,0.1-2.5,0.1-2.9
			c0.9-5.7,5.7-9.9,11.6-9.9c0,0,0,0,0,0C20.7-0.7,26,4.5,26,11S20.7,22.7,14.3,22.7z"/>
	</g>
	<g id="Path_738">
		<path class="st1" d="M3.3,13.4c-0.2,0-0.4-0.1-0.5-0.2l-3.3-3.3c-0.3-0.3-0.3-0.8,0-1.1s0.8-0.3,1.1,0l2.8,2.8L6,8.8
			c0.3-0.3,0.8-0.3,1.1,0s0.3,0.8,0,1.1l-3.3,3.3C3.7,13.3,3.5,13.4,3.3,13.4z"/>
	</g>
</g>
</svg>
