<?xml version="1.0" encoding="utf-8"?>
<!-- Generator: Adobe Illustrator 23.0.1, SVG Export Plug-In . SVG Version: 6.00 Build 0)  -->
<svg version="1.1" id="Layer_1" xmlns="http://www.w3.org/2000/svg" xmlns:xlink="http://www.w3.org/1999/xlink" x="0px" y="0px"
	 viewBox="0 0 22.5 24.8" style="enable-background:new 0 0 22.5 24.8;" xml:space="preserve">
<style type="text/css">
	.heub{fill:#9C9DA8;}
	.usbd3{fill:#6F7089;}
</style>
<g id="home" transform="translate(0.75 0.75)">
	<g id="Path_4394">
		<path class="heub" d="M1.6,10.8V24h20.1V10.8L11.7,1.6L1.6,10.8z"/>
	</g>
	<g id="Path_687">
		<path class="usbd3" d="M20.1,23.1H0c-0.4,0-0.8-0.3-0.8-0.8V9.1c0-0.2,0.1-0.4,0.2-0.6L9.6-0.6c0.3-0.3,0.7-0.3,1,0l10.1,9.1
			c0.2,0.1,0.2,0.3,0.2,0.6v13.2C20.9,22.8,20.5,23.1,20.1,23.1z M0.8,21.6h18.6V9.5L10.1,1L0.8,9.5V21.6z"/>
	</g>
	<g id="Rectangle_73">
		<path class="usbd3" d="M13.4,23.1H6.7c-0.4,0-0.8-0.3-0.8-0.8v-8.9c0-0.4,0.3-0.8,0.8-0.8h6.7c0.4,0,0.8,0.3,0.8,0.8v8.9
			C14.2,22.8,13.8,23.1,13.4,23.1z M7.5,21.6h5.2v-7.4H7.5V21.6z"/>
	</g>
</g>
</svg>
